<svg width="99" height="160" viewBox="0 0 99 160" fill="none" xmlns="http://www.w3.org/2000/svg">
<path d="M75.312 159.121C64.2877 158.531 53.5077 155.647 43.6616 150.653C33.8155 145.659 25.1199 138.666 18.1308 130.119C11.1418 121.573 6.01317 111.662 3.07294 101.021C0.132706 90.3795 -0.554443 79.2416 1.05545 68.3195C2.66533 57.3973 6.53682 46.9313 12.4223 37.5908C18.3079 28.2503 26.0779 20.2408 35.2355 14.0745C44.3931 7.90819 54.7368 3.72085 65.605 1.78022C76.4733 -0.160401 87.6269 0.188404 98.3527 2.80433L95.2537 15.5107C86.2959 13.326 76.9808 13.0347 67.904 14.6554C58.8272 16.2762 50.1886 19.7733 42.5404 24.9231C34.8923 30.073 28.4031 36.7623 23.4877 44.5631C18.5723 52.364 15.339 61.1048 13.9945 70.2266C12.6499 79.3484 13.2238 88.6504 15.6794 97.5377C18.135 106.425 22.4182 114.702 28.2552 121.84C34.0922 128.977 41.3545 134.818 49.5776 138.989C57.8008 143.159 66.8038 145.568 76.011 146.061L75.312 159.121Z" fill="url(#paint0_linear_76_1067)"/>
<defs>
<linearGradient id="paint0_linear_76_1067" x1="79.5521" y1="0.5448" x2="79.5521" y2="159.234" gradientUnits="userSpaceOnUse">
<stop stop-color="#FF2F2F"/>
<stop offset="1" stop-color="#6A1515"/>
</linearGradient>
</defs>
</svg>
